<svg width="123" height="83" viewBox="0 0 123 83" fill="none" xmlns="http://www.w3.org/2000/svg">
<path id="Subtract" fill-rule="evenodd" clip-rule="evenodd" d="M61.4091 0.496948C40.1203 0.496948 8.69112 15.8719 1.1921 36.5282C0.017344 39.7641 0.01301 43.3328 1.21357 46.5592C8.90113 67.2189 41.5927 82.5972 61.4091 82.5972C81.2255 82.5972 113.917 67.2189 121.605 46.5592C122.805 43.3328 122.801 39.7641 121.626 36.5282C114.127 15.8719 82.6978 0.496948 61.4091 0.496948ZM61.4091 72.918C78.7347 72.918 92.7799 58.8728 92.7799 41.5471C92.7799 24.2214 78.7347 10.1763 61.4091 10.1763C44.0834 10.1763 30.0382 24.2214 30.0382 41.5471C30.0382 58.8728 44.0834 72.918 61.4091 72.918ZM61.4091 61.5431C72.4525 61.5431 81.405 52.5906 81.405 41.5471C81.405 30.5037 72.4525 21.5511 61.4091 21.5511C59.8298 21.5511 58.2933 21.7342 56.8196 22.0803C57.8284 23.6584 58.4131 25.5337 58.4131 27.5455C58.4131 33.1572 53.8639 37.7064 48.2522 37.7064C46.0134 37.7064 43.9438 36.9824 42.2646 35.7557C41.7108 37.5889 41.4131 39.5332 41.4131 41.5471C41.4131 52.5906 50.3656 61.5431 61.4091 61.5431Z" fill="white"/>
</svg>
